<svg xmlns="http://www.w3.org/2000/svg" xmlns:xlink="http://www.w3.org/1999/xlink" width="169" zoomAndPan="magnify" viewBox="0 0 126.75 42" height="56" preserveAspectRatio="xMidYMid meet" version="1.0"><defs><g/></defs><g fill="#544f4d" fill-opacity="1"><g transform="translate(1.141362, 28.884418)"><g><path d="M 16.046875 -10.0625 L 6.859375 -10.0625 L 6.859375 -3.84375 L 17.640625 -3.84375 L 17.640625 0 L 2.078125 0 L 2.078125 -23.234375 L 17.609375 -23.234375 L 17.609375 -19.34375 L 6.859375 -19.34375 L 6.859375 -13.8125 L 16.046875 -13.8125 Z M 16.046875 -10.0625 "/></g></g></g><g fill="#544f4d" fill-opacity="1"><g transform="translate(17.556945, 28.884418)"><g><path d="M 11.765625 0 C 11.554688 -0.414062 11.40625 -0.929688 11.3125 -1.546875 C 10.195312 -0.304688 8.742188 0.3125 6.953125 0.3125 C 5.265625 0.3125 3.863281 -0.171875 2.75 -1.140625 C 1.632812 -2.117188 1.078125 -3.351562 1.078125 -4.84375 C 1.078125 -6.675781 1.753906 -8.082031 3.109375 -9.0625 C 4.472656 -10.039062 6.4375 -10.535156 9 -10.546875 L 11.125 -10.546875 L 11.125 -11.53125 C 11.125 -12.332031 10.914062 -12.972656 10.5 -13.453125 C 10.09375 -13.929688 9.445312 -14.171875 8.5625 -14.171875 C 7.789062 -14.171875 7.179688 -13.984375 6.734375 -13.609375 C 6.296875 -13.234375 6.078125 -12.722656 6.078125 -12.078125 L 1.46875 -12.078125 C 1.46875 -13.078125 1.773438 -14 2.390625 -14.84375 C 3.003906 -15.695312 3.875 -16.363281 5 -16.84375 C 6.132812 -17.332031 7.40625 -17.578125 8.8125 -17.578125 C 10.9375 -17.578125 12.625 -17.039062 13.875 -15.96875 C 15.125 -14.90625 15.75 -13.40625 15.75 -11.46875 L 15.75 -3.984375 C 15.757812 -2.347656 15.988281 -1.109375 16.4375 -0.265625 L 16.4375 0 Z M 7.953125 -3.203125 C 8.640625 -3.203125 9.269531 -3.351562 9.84375 -3.65625 C 10.414062 -3.957031 10.84375 -4.363281 11.125 -4.875 L 11.125 -7.84375 L 9.390625 -7.84375 C 7.085938 -7.84375 5.863281 -7.046875 5.71875 -5.453125 L 5.6875 -5.1875 C 5.6875 -4.613281 5.890625 -4.140625 6.296875 -3.765625 C 6.703125 -3.390625 7.253906 -3.203125 7.953125 -3.203125 Z M 7.953125 -3.203125 "/></g></g></g><g fill="#544f4d" fill-opacity="1"><g transform="translate(33.11116, 28.884418)"><g><path d="M 11.125 -4.765625 C 11.125 -5.328125 10.84375 -5.769531 10.28125 -6.09375 C 9.71875 -6.425781 8.820312 -6.71875 7.59375 -6.96875 C 3.488281 -7.832031 1.4375 -9.578125 1.4375 -12.203125 C 1.4375 -13.734375 2.070312 -15.007812 3.34375 -16.03125 C 4.613281 -17.0625 6.273438 -17.578125 8.328125 -17.578125 C 10.515625 -17.578125 12.265625 -17.0625 13.578125 -16.03125 C 14.890625 -15 15.546875 -13.660156 15.546875 -12.015625 L 10.9375 -12.015625 C 10.9375 -12.671875 10.722656 -13.210938 10.296875 -13.640625 C 9.878906 -14.078125 9.21875 -14.296875 8.3125 -14.296875 C 7.53125 -14.296875 6.925781 -14.117188 6.5 -13.765625 C 6.082031 -13.410156 5.875 -12.960938 5.875 -12.421875 C 5.875 -11.910156 6.113281 -11.5 6.59375 -11.1875 C 7.082031 -10.875 7.898438 -10.601562 9.046875 -10.375 C 10.191406 -10.144531 11.160156 -9.890625 11.953125 -9.609375 C 14.390625 -8.710938 15.609375 -7.164062 15.609375 -4.96875 C 15.609375 -3.382812 14.929688 -2.109375 13.578125 -1.140625 C 12.222656 -0.171875 10.476562 0.3125 8.34375 0.3125 C 6.894531 0.3125 5.609375 0.0546875 4.484375 -0.453125 C 3.367188 -0.972656 2.488281 -1.679688 1.84375 -2.578125 C 1.207031 -3.472656 0.890625 -4.441406 0.890625 -5.484375 L 5.265625 -5.484375 C 5.304688 -4.671875 5.609375 -4.046875 6.171875 -3.609375 C 6.734375 -3.171875 7.488281 -2.953125 8.4375 -2.953125 C 9.320312 -2.953125 9.988281 -3.117188 10.4375 -3.453125 C 10.894531 -3.785156 11.125 -4.222656 11.125 -4.765625 Z M 11.125 -4.765625 "/></g></g></g><g fill="#544f4d" fill-opacity="1"><g transform="translate(47.947567, 28.884418)"><g><path d="M 7.296875 -21.5 L 7.296875 -17.265625 L 10.234375 -17.265625 L 10.234375 -13.875 L 7.296875 -13.875 L 7.296875 -5.265625 C 7.296875 -4.628906 7.414062 -4.171875 7.65625 -3.890625 C 7.90625 -3.617188 8.375 -3.484375 9.0625 -3.484375 C 9.570312 -3.484375 10.023438 -3.519531 10.421875 -3.59375 L 10.421875 -0.09375 C 9.515625 0.175781 8.582031 0.3125 7.625 0.3125 C 4.394531 0.3125 2.75 -1.316406 2.6875 -4.578125 L 2.6875 -13.875 L 0.15625 -13.875 L 0.15625 -17.265625 L 2.6875 -17.265625 L 2.6875 -21.5 Z M 7.296875 -21.5 "/></g></g></g><g fill="#ef5241" fill-opacity="1"><g transform="translate(56.296983, 28.884418)"><g><path d="M 16.046875 -9.484375 L 6.859375 -9.484375 L 6.859375 0 L 2.078125 0 L 2.078125 -23.234375 L 17.203125 -23.234375 L 17.203125 -19.34375 L 6.859375 -19.34375 L 6.859375 -13.359375 L 16.046875 -13.359375 Z M 16.046875 -9.484375 "/></g></g></g><g fill="#ef5241" fill-opacity="1"><g transform="translate(72.234028, 28.884418)"><g><path d="M 6.640625 0 L 2.015625 0 L 2.015625 -24.5 L 6.640625 -24.5 Z M 6.640625 0 "/></g></g></g><g fill="#ef5241" fill-opacity="1"><g transform="translate(78.935302, 28.884418)"><g><path d="M 1.046875 -8.796875 C 1.046875 -10.503906 1.375 -12.023438 2.03125 -13.359375 C 2.695312 -14.703125 3.648438 -15.738281 4.890625 -16.46875 C 6.128906 -17.207031 7.566406 -17.578125 9.203125 -17.578125 C 11.535156 -17.578125 13.4375 -16.863281 14.90625 -15.4375 C 16.382812 -14.019531 17.207031 -12.085938 17.375 -9.640625 L 17.40625 -8.453125 C 17.40625 -5.804688 16.664062 -3.679688 15.1875 -2.078125 C 13.707031 -0.484375 11.722656 0.3125 9.234375 0.3125 C 6.742188 0.3125 4.753906 -0.484375 3.265625 -2.078125 C 1.785156 -3.671875 1.046875 -5.835938 1.046875 -8.578125 Z M 5.65625 -8.453125 C 5.65625 -6.816406 5.960938 -5.5625 6.578125 -4.6875 C 7.203125 -3.820312 8.085938 -3.390625 9.234375 -3.390625 C 10.347656 -3.390625 11.21875 -3.816406 11.84375 -4.671875 C 12.476562 -5.535156 12.796875 -6.910156 12.796875 -8.796875 C 12.796875 -10.398438 12.476562 -11.640625 11.84375 -12.515625 C 11.21875 -13.398438 10.335938 -13.84375 9.203125 -13.84375 C 8.078125 -13.84375 7.203125 -13.40625 6.578125 -12.53125 C 5.960938 -11.65625 5.65625 -10.296875 5.65625 -8.453125 Z M 5.65625 -8.453125 "/></g></g></g><g fill="#ef5241" fill-opacity="1"><g transform="translate(95.44659, 28.884418)"><g><path d="M 16.78125 -6.265625 L 19.046875 -17.265625 L 23.5 -17.265625 L 19.09375 0 L 15.234375 0 L 11.96875 -10.859375 L 8.6875 0 L 4.84375 0 L 0.453125 -17.265625 L 4.890625 -17.265625 L 7.140625 -6.28125 L 10.3125 -17.265625 L 13.640625 -17.265625 Z M 16.78125 -6.265625 "/></g></g></g><g fill="#ef5241" fill-opacity="1"><g transform="translate(117.492965, 28.884418)"><g><path d="M 2.015625 -2.265625 C 2.015625 -2.992188 2.257812 -3.585938 2.75 -4.046875 C 3.25 -4.503906 3.867188 -4.734375 4.609375 -4.734375 C 5.367188 -4.734375 5.992188 -4.503906 6.484375 -4.046875 C 6.984375 -3.585938 7.234375 -2.992188 7.234375 -2.265625 C 7.234375 -1.546875 6.988281 -0.957031 6.5 -0.5 C 6.007812 -0.0507812 5.378906 0.171875 4.609375 0.171875 C 3.859375 0.171875 3.238281 -0.0507812 2.75 -0.5 C 2.257812 -0.957031 2.015625 -1.546875 2.015625 -2.265625 Z M 2.015625 -2.265625 "/></g></g></g><g fill="#544f4d" fill-opacity="1"><g transform="translate(4.113865, 40.20498)"><g><path d="M 0.53125 0 L 0.53125 -5.90625 L 2.34375 -5.90625 C 2.863281 -5.90625 3.328125 -5.785156 3.734375 -5.546875 C 4.148438 -5.316406 4.472656 -4.984375 4.703125 -4.546875 C 4.929688 -4.117188 5.046875 -3.632812 5.046875 -3.09375 L 5.046875 -2.8125 C 5.046875 -2.269531 4.929688 -1.78125 4.703125 -1.34375 C 4.484375 -0.914062 4.164062 -0.582031 3.75 -0.34375 C 3.34375 -0.113281 2.878906 0 2.359375 0 Z M 1.75 -4.921875 L 1.75 -0.984375 L 2.328125 -0.984375 C 2.804688 -0.984375 3.171875 -1.132812 3.421875 -1.4375 C 3.671875 -1.75 3.800781 -2.195312 3.8125 -2.78125 L 3.8125 -3.09375 C 3.8125 -3.695312 3.6875 -4.148438 3.4375 -4.453125 C 3.1875 -4.765625 2.820312 -4.921875 2.34375 -4.921875 Z M 1.75 -4.921875 "/></g></g></g><g fill="#544f4d" fill-opacity="1"><g transform="translate(13.721351, 40.20498)"><g><path d="M 1.828125 0 L 0.609375 0 L 0.609375 -5.90625 L 1.828125 -5.90625 Z M 1.828125 0 "/></g></g></g><g fill="#544f4d" fill-opacity="1"><g transform="translate(20.347916, 40.20498)"><g><path d="M 5.203125 -0.75 C 4.984375 -0.488281 4.671875 -0.285156 4.265625 -0.140625 C 3.867188 0.00390625 3.425781 0.078125 2.9375 0.078125 C 2.425781 0.078125 1.976562 -0.03125 1.59375 -0.25 C 1.207031 -0.476562 0.910156 -0.800781 0.703125 -1.21875 C 0.492188 -1.644531 0.382812 -2.144531 0.375 -2.71875 L 0.375 -3.125 C 0.375 -3.71875 0.472656 -4.226562 0.671875 -4.65625 C 0.878906 -5.09375 1.171875 -5.421875 1.546875 -5.640625 C 1.921875 -5.867188 2.359375 -5.984375 2.859375 -5.984375 C 3.554688 -5.984375 4.101562 -5.816406 4.5 -5.484375 C 4.894531 -5.148438 5.128906 -4.664062 5.203125 -4.03125 L 4.015625 -4.03125 C 3.960938 -4.363281 3.84375 -4.609375 3.65625 -4.765625 C 3.46875 -4.929688 3.210938 -5.015625 2.890625 -5.015625 C 2.472656 -5.015625 2.15625 -4.859375 1.9375 -4.546875 C 1.726562 -4.234375 1.625 -3.769531 1.625 -3.15625 L 1.625 -2.78125 C 1.625 -2.15625 1.738281 -1.679688 1.96875 -1.359375 C 2.207031 -1.046875 2.550781 -0.890625 3 -0.890625 C 3.457031 -0.890625 3.785156 -0.988281 3.984375 -1.1875 L 3.984375 -2.203125 L 2.875 -2.203125 L 2.875 -3.109375 L 5.203125 -3.109375 Z M 5.203125 -0.75 "/></g></g></g><g fill="#544f4d" fill-opacity="1"><g transform="translate(30.21532, 40.20498)"><g><path d="M 1.828125 0 L 0.609375 0 L 0.609375 -5.90625 L 1.828125 -5.90625 Z M 1.828125 0 "/></g></g></g><g fill="#544f4d" fill-opacity="1"><g transform="translate(36.841884, 40.20498)"><g><path d="M 4.96875 -4.921875 L 3.171875 -4.921875 L 3.171875 0 L 1.953125 0 L 1.953125 -4.921875 L 0.15625 -4.921875 L 0.15625 -5.90625 L 4.96875 -5.90625 Z M 4.96875 -4.921875 "/></g></g></g><g fill="#544f4d" fill-opacity="1"><g transform="translate(46.189455, 40.20498)"><g><path d="M 3.859375 -1.21875 L 1.734375 -1.21875 L 1.328125 0 L 0.03125 0 L 2.234375 -5.90625 L 3.359375 -5.90625 L 5.5625 0 L 4.28125 0 Z M 2.0625 -2.203125 L 3.53125 -2.203125 L 2.796875 -4.421875 Z M 2.0625 -2.203125 "/></g></g></g><g fill="#544f4d" fill-opacity="1"><g transform="translate(55.987815, 40.20498)"><g><path d="M 1.75 -0.984375 L 4.328125 -0.984375 L 4.328125 0 L 0.53125 0 L 0.53125 -5.90625 L 1.75 -5.90625 Z M 1.75 -0.984375 "/></g></g></g><g fill="#544f4d" fill-opacity="1"><g transform="translate(64.693714, 40.20498)"><g/></g></g><g fill="#544f4d" fill-opacity="1"><g transform="translate(70.966951, 40.20498)"><g><path d="M 3.859375 -1.21875 L 1.734375 -1.21875 L 1.328125 0 L 0.03125 0 L 2.234375 -5.90625 L 3.359375 -5.90625 L 5.5625 0 L 4.28125 0 Z M 2.0625 -2.203125 L 3.53125 -2.203125 L 2.796875 -4.421875 Z M 2.0625 -2.203125 "/></g></g></g><g fill="#544f4d" fill-opacity="1"><g transform="translate(80.765311, 40.20498)"><g><path d="M 5.203125 -0.75 C 4.984375 -0.488281 4.671875 -0.285156 4.265625 -0.140625 C 3.867188 0.00390625 3.425781 0.078125 2.9375 0.078125 C 2.425781 0.078125 1.976562 -0.03125 1.59375 -0.25 C 1.207031 -0.476562 0.910156 -0.800781 0.703125 -1.21875 C 0.492188 -1.644531 0.382812 -2.144531 0.375 -2.71875 L 0.375 -3.125 C 0.375 -3.71875 0.472656 -4.226562 0.671875 -4.65625 C 0.878906 -5.09375 1.171875 -5.421875 1.546875 -5.640625 C 1.921875 -5.867188 2.359375 -5.984375 2.859375 -5.984375 C 3.554688 -5.984375 4.101562 -5.816406 4.5 -5.484375 C 4.894531 -5.148438 5.128906 -4.664062 5.203125 -4.03125 L 4.015625 -4.03125 C 3.960938 -4.363281 3.84375 -4.609375 3.65625 -4.765625 C 3.46875 -4.929688 3.210938 -5.015625 2.890625 -5.015625 C 2.472656 -5.015625 2.15625 -4.859375 1.9375 -4.546875 C 1.726562 -4.234375 1.625 -3.769531 1.625 -3.15625 L 1.625 -2.78125 C 1.625 -2.15625 1.738281 -1.679688 1.96875 -1.359375 C 2.207031 -1.046875 2.550781 -0.890625 3 -0.890625 C 3.457031 -0.890625 3.785156 -0.988281 3.984375 -1.1875 L 3.984375 -2.203125 L 2.875 -2.203125 L 2.875 -3.109375 L 5.203125 -3.109375 Z M 5.203125 -0.75 "/></g></g></g><g fill="#544f4d" fill-opacity="1"><g transform="translate(90.632714, 40.20498)"><g><path d="M 4.078125 -2.5625 L 1.75 -2.5625 L 1.75 -0.984375 L 4.484375 -0.984375 L 4.484375 0 L 0.53125 0 L 0.53125 -5.90625 L 4.484375 -5.90625 L 4.484375 -4.921875 L 1.75 -4.921875 L 1.75 -3.515625 L 4.078125 -3.515625 Z M 4.078125 -2.5625 "/></g></g></g><g fill="#544f4d" fill-opacity="1"><g transform="translate(99.513242, 40.20498)"><g><path d="M 5.328125 0 L 4.109375 0 L 1.75 -3.890625 L 1.75 0 L 0.53125 0 L 0.53125 -5.90625 L 1.75 -5.90625 L 4.125 -2.015625 L 4.125 -5.90625 L 5.328125 -5.90625 Z M 5.328125 0 "/></g></g></g><g fill="#544f4d" fill-opacity="1"><g transform="translate(109.587769, 40.20498)"><g><path d="M 5.171875 -1.96875 C 5.117188 -1.332031 4.878906 -0.832031 4.453125 -0.46875 C 4.035156 -0.101562 3.476562 0.078125 2.78125 0.078125 C 2.03125 0.078125 1.4375 -0.175781 1 -0.6875 C 0.5625 -1.195312 0.34375 -1.894531 0.34375 -2.78125 L 0.34375 -3.140625 C 0.34375 -3.710938 0.441406 -4.210938 0.640625 -4.640625 C 0.847656 -5.078125 1.132812 -5.410156 1.5 -5.640625 C 1.875 -5.867188 2.304688 -5.984375 2.796875 -5.984375 C 3.484375 -5.984375 4.035156 -5.800781 4.453125 -5.4375 C 4.867188 -5.070312 5.109375 -4.5625 5.171875 -3.90625 L 3.953125 -3.90625 C 3.921875 -4.289062 3.8125 -4.566406 3.625 -4.734375 C 3.445312 -4.910156 3.171875 -5 2.796875 -5 C 2.398438 -5 2.097656 -4.851562 1.890625 -4.5625 C 1.691406 -4.269531 1.585938 -3.816406 1.578125 -3.203125 L 1.578125 -2.75 C 1.578125 -2.113281 1.671875 -1.644531 1.859375 -1.34375 C 2.054688 -1.050781 2.363281 -0.90625 2.78125 -0.90625 C 3.164062 -0.90625 3.445312 -0.988281 3.625 -1.15625 C 3.8125 -1.332031 3.921875 -1.601562 3.953125 -1.96875 Z M 5.171875 -1.96875 "/></g></g></g><g fill="#544f4d" fill-opacity="1"><g transform="translate(119.231804, 40.20498)"><g><path d="M 2.5625 -3.25 L 3.796875 -5.90625 L 5.125 -5.90625 L 3.1875 -2.140625 L 3.1875 0 L 1.953125 0 L 1.953125 -2.140625 L 0.015625 -5.90625 L 1.34375 -5.90625 Z M 2.5625 -3.25 "/></g></g></g></svg>