<svg xmlns="http://www.w3.org/2000/svg" xmlns:xlink="http://www.w3.org/1999/xlink" width="500" zoomAndPan="magnify" viewBox="0 0 375 374.999991" height="500" preserveAspectRatio="xMidYMid meet" version="1.0"><defs><g/></defs><g fill="#544f4d" fill-opacity="1"><g transform="translate(59.424008, 203.467765)"><g><path d="M 40.84375 -25.625 L 17.453125 -25.625 L 17.453125 -9.78125 L 44.90625 -9.78125 L 44.90625 0 L 5.28125 0 L 5.28125 -59.125 L 44.828125 -59.125 L 44.828125 -49.25 L 17.453125 -49.25 L 17.453125 -35.15625 L 40.84375 -35.15625 Z M 40.84375 -25.625 "/></g></g></g><g fill="#544f4d" fill-opacity="1"><g transform="translate(101.209605, 203.467765)"><g><path d="M 29.96875 0 C 29.425781 -1.050781 29.03125 -2.363281 28.78125 -3.9375 C 25.945312 -0.769531 22.253906 0.8125 17.703125 0.8125 C 13.398438 0.8125 9.832031 -0.429688 7 -2.921875 C 4.175781 -5.410156 2.765625 -8.550781 2.765625 -12.34375 C 2.765625 -17 4.488281 -20.570312 7.9375 -23.0625 C 11.382812 -25.550781 16.375 -26.8125 22.90625 -26.84375 L 28.296875 -26.84375 L 28.296875 -29.359375 C 28.296875 -31.390625 27.773438 -33.015625 26.734375 -34.234375 C 25.691406 -35.453125 24.046875 -36.0625 21.796875 -36.0625 C 19.828125 -36.0625 18.28125 -35.585938 17.15625 -34.640625 C 16.03125 -33.691406 15.46875 -32.390625 15.46875 -30.734375 L 3.734375 -30.734375 C 3.734375 -33.273438 4.519531 -35.628906 6.09375 -37.796875 C 7.664062 -39.960938 9.882812 -41.660156 12.75 -42.890625 C 15.613281 -44.128906 18.832031 -44.75 22.40625 -44.75 C 27.820312 -44.75 32.117188 -43.382812 35.296875 -40.65625 C 38.484375 -37.9375 40.078125 -34.113281 40.078125 -29.1875 L 40.078125 -10.15625 C 40.097656 -5.976562 40.679688 -2.820312 41.828125 -0.6875 L 41.828125 0 Z M 20.265625 -8.15625 C 21.992188 -8.15625 23.585938 -8.539062 25.046875 -9.3125 C 26.515625 -10.082031 27.597656 -11.117188 28.296875 -12.421875 L 28.296875 -19.984375 L 23.921875 -19.984375 C 18.046875 -19.984375 14.914062 -17.953125 14.53125 -13.890625 L 14.5 -13.203125 C 14.5 -11.734375 15.007812 -10.523438 16.03125 -9.578125 C 17.0625 -8.628906 18.472656 -8.15625 20.265625 -8.15625 Z M 20.265625 -8.15625 "/></g></g></g><g fill="#544f4d" fill-opacity="1"><g transform="translate(140.802607, 203.467765)"><g><path d="M 28.296875 -12.140625 C 28.296875 -13.578125 27.582031 -14.707031 26.15625 -15.53125 C 24.738281 -16.351562 22.460938 -17.09375 19.328125 -17.75 C 8.878906 -19.9375 3.65625 -24.375 3.65625 -31.0625 C 3.65625 -34.957031 5.269531 -38.210938 8.5 -40.828125 C 11.738281 -43.441406 15.96875 -44.75 21.1875 -44.75 C 26.769531 -44.75 31.234375 -43.4375 34.578125 -40.8125 C 37.921875 -38.1875 39.59375 -34.773438 39.59375 -30.578125 L 27.859375 -30.578125 C 27.859375 -32.253906 27.316406 -33.640625 26.234375 -34.734375 C 25.148438 -35.828125 23.457031 -36.375 21.15625 -36.375 C 19.175781 -36.375 17.644531 -35.925781 16.5625 -35.03125 C 15.476562 -34.144531 14.9375 -33.007812 14.9375 -31.625 C 14.9375 -30.332031 15.550781 -29.285156 16.78125 -28.484375 C 18.019531 -27.679688 20.097656 -26.988281 23.015625 -26.40625 C 25.941406 -25.832031 28.40625 -25.175781 30.40625 -24.4375 C 36.601562 -22.164062 39.703125 -18.226562 39.703125 -12.625 C 39.703125 -8.625 37.984375 -5.382812 34.546875 -2.90625 C 31.109375 -0.425781 26.671875 0.8125 21.234375 0.8125 C 17.554688 0.8125 14.285156 0.15625 11.421875 -1.15625 C 8.566406 -2.46875 6.328125 -4.265625 4.703125 -6.546875 C 3.085938 -8.835938 2.28125 -11.3125 2.28125 -13.96875 L 13.40625 -13.96875 C 13.507812 -11.882812 14.273438 -10.285156 15.703125 -9.171875 C 17.140625 -8.066406 19.066406 -7.515625 21.484375 -7.515625 C 23.722656 -7.515625 25.414062 -7.9375 26.5625 -8.78125 C 27.71875 -9.632812 28.296875 -10.753906 28.296875 -12.140625 Z M 28.296875 -12.140625 "/></g></g></g><g fill="#544f4d" fill-opacity="1"><g transform="translate(178.568439, 203.467765)"><g><path d="M 18.5625 -54.734375 L 18.5625 -43.9375 L 26.0625 -43.9375 L 26.0625 -35.328125 L 18.5625 -35.328125 L 18.5625 -13.40625 C 18.5625 -11.78125 18.867188 -10.613281 19.484375 -9.90625 C 20.109375 -9.207031 21.300781 -8.859375 23.0625 -8.859375 C 24.363281 -8.859375 25.515625 -8.953125 26.515625 -9.140625 L 26.515625 -0.25 C 24.210938 0.457031 21.84375 0.8125 19.40625 0.8125 C 11.175781 0.8125 6.984375 -3.34375 6.828125 -11.65625 L 6.828125 -35.328125 L 0.40625 -35.328125 L 0.40625 -43.9375 L 6.828125 -43.9375 L 6.828125 -54.734375 Z M 18.5625 -54.734375 "/></g></g></g><g fill="#ef5241" fill-opacity="1"><g transform="translate(196.07176, 203.467765)"><g><path d="M 40.84375 -24.15625 L 17.453125 -24.15625 L 17.453125 0 L 5.28125 0 L 5.28125 -59.125 L 43.765625 -59.125 L 43.765625 -49.25 L 17.453125 -49.25 L 17.453125 -33.984375 L 40.84375 -33.984375 Z M 40.84375 -24.15625 "/></g></g></g><g fill="#ef5241" fill-opacity="1"><g transform="translate(236.639249, 203.467765)"><g><path d="M 16.890625 0 L 5.109375 0 L 5.109375 -62.375 L 16.890625 -62.375 Z M 16.890625 0 "/></g></g></g><g fill="#ef5241" fill-opacity="1"><g transform="translate(253.697233, 203.467765)"><g><path d="M 2.6875 -22.375 C 2.6875 -26.726562 3.523438 -30.609375 5.203125 -34.015625 C 6.878906 -37.429688 9.289062 -40.070312 12.4375 -41.9375 C 15.59375 -43.8125 19.253906 -44.75 23.421875 -44.75 C 29.359375 -44.75 34.195312 -42.929688 37.9375 -39.296875 C 41.6875 -35.671875 43.78125 -30.75 44.21875 -24.53125 L 44.296875 -21.515625 C 44.296875 -14.773438 42.414062 -9.367188 38.65625 -5.296875 C 34.894531 -1.222656 29.847656 0.8125 23.515625 0.8125 C 17.179688 0.8125 12.125 -1.21875 8.34375 -5.28125 C 4.570312 -9.34375 2.6875 -14.863281 2.6875 -21.84375 Z M 14.421875 -21.515625 C 14.421875 -17.347656 15.203125 -14.160156 16.765625 -11.953125 C 18.335938 -9.753906 20.585938 -8.65625 23.515625 -8.65625 C 26.347656 -8.65625 28.5625 -9.742188 30.15625 -11.921875 C 31.757812 -14.097656 32.5625 -17.582031 32.5625 -22.375 C 32.5625 -26.457031 31.757812 -29.625 30.15625 -31.875 C 28.5625 -34.125 26.316406 -35.25 23.421875 -35.25 C 20.554688 -35.25 18.335938 -34.128906 16.765625 -31.890625 C 15.203125 -29.660156 14.421875 -26.203125 14.421875 -21.515625 Z M 14.421875 -21.515625 "/></g></g></g><g fill="#ef5241" fill-opacity="1"><g transform="translate(295.726447, 203.467765)"><g><path d="M 42.71875 -15.953125 L 48.484375 -43.9375 L 59.8125 -43.9375 L 48.609375 0 L 38.78125 0 L 30.453125 -27.65625 L 22.125 0 L 12.34375 0 L 1.140625 -43.9375 L 12.46875 -43.9375 L 18.1875 -16 L 26.234375 -43.9375 L 34.71875 -43.9375 Z M 42.71875 -15.953125 "/></g></g></g><g fill="#ef5241" fill-opacity="1"><g transform="translate(351.845134, 203.467765)"><g><path d="M 5.109375 -5.765625 C 5.109375 -7.628906 5.738281 -9.144531 7 -10.3125 C 8.257812 -11.476562 9.835938 -12.0625 11.734375 -12.0625 C 13.660156 -12.0625 15.25 -11.476562 16.5 -10.3125 C 17.757812 -9.144531 18.390625 -7.628906 18.390625 -5.765625 C 18.390625 -3.921875 17.765625 -2.421875 16.515625 -1.265625 C 15.273438 -0.117188 13.679688 0.453125 11.734375 0.453125 C 9.816406 0.453125 8.234375 -0.117188 6.984375 -1.265625 C 5.734375 -2.421875 5.109375 -3.921875 5.109375 -5.765625 Z M 5.109375 -5.765625 "/></g></g></g><g fill="#544f4d" fill-opacity="1"><g transform="translate(63.240471, 232.284089)"><g><path d="M 1.34375 0 L 1.34375 -15.046875 L 5.96875 -15.046875 C 7.289062 -15.046875 8.472656 -14.75 9.515625 -14.15625 C 10.566406 -13.5625 11.382812 -12.710938 11.96875 -11.609375 C 12.550781 -10.515625 12.84375 -9.265625 12.84375 -7.859375 L 12.84375 -7.171875 C 12.84375 -5.773438 12.554688 -4.53125 11.984375 -3.4375 C 11.410156 -2.351562 10.597656 -1.507812 9.546875 -0.90625 C 8.503906 -0.3125 7.320312 -0.0078125 6 0 Z M 4.4375 -12.546875 L 4.4375 -2.484375 L 5.9375 -2.484375 C 7.15625 -2.484375 8.082031 -2.878906 8.71875 -3.671875 C 9.363281 -4.472656 9.691406 -5.609375 9.703125 -7.078125 L 9.703125 -7.875 C 9.703125 -9.40625 9.382812 -10.566406 8.75 -11.359375 C 8.125 -12.148438 7.195312 -12.546875 5.96875 -12.546875 Z M 4.4375 -12.546875 "/></g></g></g><g fill="#544f4d" fill-opacity="1"><g transform="translate(87.696172, 232.284089)"><g><path d="M 4.640625 0 L 1.546875 0 L 1.546875 -15.046875 L 4.640625 -15.046875 Z M 4.640625 0 "/></g></g></g><g fill="#544f4d" fill-opacity="1"><g transform="translate(104.563984, 232.284089)"><g><path d="M 13.25 -1.90625 C 12.695312 -1.238281 11.910156 -0.71875 10.890625 -0.34375 C 9.867188 0.0195312 8.738281 0.203125 7.5 0.203125 C 6.195312 0.203125 5.050781 -0.078125 4.0625 -0.640625 C 3.082031 -1.210938 2.328125 -2.039062 1.796875 -3.125 C 1.265625 -4.207031 0.988281 -5.476562 0.96875 -6.9375 L 0.96875 -7.953125 C 0.96875 -9.460938 1.21875 -10.765625 1.71875 -11.859375 C 2.226562 -12.960938 2.960938 -13.804688 3.921875 -14.390625 C 4.878906 -14.972656 6 -15.265625 7.28125 -15.265625 C 9.0625 -15.265625 10.453125 -14.835938 11.453125 -13.984375 C 12.460938 -13.128906 13.0625 -11.890625 13.25 -10.265625 L 10.234375 -10.265625 C 10.097656 -11.128906 9.789062 -11.757812 9.3125 -12.15625 C 8.84375 -12.550781 8.195312 -12.75 7.375 -12.75 C 6.320312 -12.75 5.519531 -12.351562 4.96875 -11.5625 C 4.414062 -10.769531 4.132812 -9.59375 4.125 -8.03125 L 4.125 -7.078125 C 4.125 -5.492188 4.421875 -4.296875 5.015625 -3.484375 C 5.617188 -2.679688 6.5 -2.28125 7.65625 -2.28125 C 8.820312 -2.28125 9.65625 -2.53125 10.15625 -3.03125 L 10.15625 -5.625 L 7.328125 -5.625 L 7.328125 -7.90625 L 13.25 -7.90625 Z M 13.25 -1.90625 "/></g></g></g><g fill="#544f4d" fill-opacity="1"><g transform="translate(129.681301, 232.284089)"><g><path d="M 4.640625 0 L 1.546875 0 L 1.546875 -15.046875 L 4.640625 -15.046875 Z M 4.640625 0 "/></g></g></g><g fill="#544f4d" fill-opacity="1"><g transform="translate(146.549111, 232.284089)"><g><path d="M 12.671875 -12.546875 L 8.0625 -12.546875 L 8.0625 0 L 4.96875 0 L 4.96875 -12.546875 L 0.40625 -12.546875 L 0.40625 -15.046875 L 12.671875 -15.046875 Z M 12.671875 -12.546875 "/></g></g></g><g fill="#544f4d" fill-opacity="1"><g transform="translate(170.343203, 232.284089)"><g><path d="M 9.84375 -3.09375 L 4.40625 -3.09375 L 3.375 0 L 0.078125 0 L 5.671875 -15.046875 L 8.546875 -15.046875 L 14.1875 0 L 10.890625 0 Z M 5.234375 -5.609375 L 9 -5.609375 L 7.109375 -11.25 Z M 5.234375 -5.609375 "/></g></g></g><g fill="#544f4d" fill-opacity="1"><g transform="translate(195.284769, 232.284089)"><g><path d="M 4.4375 -2.484375 L 11.03125 -2.484375 L 11.03125 0 L 1.34375 0 L 1.34375 -15.046875 L 4.4375 -15.046875 Z M 4.4375 -2.484375 "/></g></g></g><g fill="#544f4d" fill-opacity="1"><g transform="translate(217.445494, 232.284089)"><g/></g></g><g fill="#544f4d" fill-opacity="1"><g transform="translate(233.413916, 232.284089)"><g><path d="M 9.84375 -3.09375 L 4.40625 -3.09375 L 3.375 0 L 0.078125 0 L 5.671875 -15.046875 L 8.546875 -15.046875 L 14.1875 0 L 10.890625 0 Z M 5.234375 -5.609375 L 9 -5.609375 L 7.109375 -11.25 Z M 5.234375 -5.609375 "/></g></g></g><g fill="#544f4d" fill-opacity="1"><g transform="translate(258.355483, 232.284089)"><g><path d="M 13.25 -1.90625 C 12.695312 -1.238281 11.910156 -0.71875 10.890625 -0.34375 C 9.867188 0.0195312 8.738281 0.203125 7.5 0.203125 C 6.195312 0.203125 5.050781 -0.078125 4.0625 -0.640625 C 3.082031 -1.210938 2.328125 -2.039062 1.796875 -3.125 C 1.265625 -4.207031 0.988281 -5.476562 0.96875 -6.9375 L 0.96875 -7.953125 C 0.96875 -9.460938 1.21875 -10.765625 1.71875 -11.859375 C 2.226562 -12.960938 2.960938 -13.804688 3.921875 -14.390625 C 4.878906 -14.972656 6 -15.265625 7.28125 -15.265625 C 9.0625 -15.265625 10.453125 -14.835938 11.453125 -13.984375 C 12.460938 -13.128906 13.0625 -11.890625 13.25 -10.265625 L 10.234375 -10.265625 C 10.097656 -11.128906 9.789062 -11.757812 9.3125 -12.15625 C 8.84375 -12.550781 8.195312 -12.75 7.375 -12.75 C 6.320312 -12.75 5.519531 -12.351562 4.96875 -11.5625 C 4.414062 -10.769531 4.132812 -9.59375 4.125 -8.03125 L 4.125 -7.078125 C 4.125 -5.492188 4.421875 -4.296875 5.015625 -3.484375 C 5.617188 -2.679688 6.5 -2.28125 7.65625 -2.28125 C 8.820312 -2.28125 9.65625 -2.53125 10.15625 -3.03125 L 10.15625 -5.625 L 7.328125 -5.625 L 7.328125 -7.90625 L 13.25 -7.90625 Z M 13.25 -1.90625 "/></g></g></g><g fill="#544f4d" fill-opacity="1"><g transform="translate(283.472797, 232.284089)"><g><path d="M 10.40625 -6.515625 L 4.4375 -6.515625 L 4.4375 -2.484375 L 11.4375 -2.484375 L 11.4375 0 L 1.34375 0 L 1.34375 -15.046875 L 11.40625 -15.046875 L 11.40625 -12.546875 L 4.4375 -12.546875 L 4.4375 -8.953125 L 10.40625 -8.953125 Z M 10.40625 -6.515625 "/></g></g></g><g fill="#544f4d" fill-opacity="1"><g transform="translate(306.078037, 232.284089)"><g><path d="M 13.578125 0 L 10.484375 0 L 4.4375 -9.90625 L 4.4375 0 L 1.34375 0 L 1.34375 -15.046875 L 4.4375 -15.046875 L 10.5 -5.125 L 10.5 -15.046875 L 13.578125 -15.046875 Z M 13.578125 0 "/></g></g></g><g fill="#544f4d" fill-opacity="1"><g transform="translate(331.722582, 232.284089)"><g><path d="M 13.15625 -5.015625 C 13.039062 -3.390625 12.441406 -2.113281 11.359375 -1.1875 C 10.285156 -0.257812 8.867188 0.203125 7.109375 0.203125 C 5.171875 0.203125 3.648438 -0.441406 2.546875 -1.734375 C 1.441406 -3.035156 0.890625 -4.820312 0.890625 -7.09375 L 0.890625 -8.015625 C 0.890625 -9.460938 1.144531 -10.734375 1.65625 -11.828125 C 2.164062 -12.929688 2.894531 -13.78125 3.84375 -14.375 C 4.789062 -14.96875 5.890625 -15.265625 7.140625 -15.265625 C 8.878906 -15.265625 10.28125 -14.796875 11.34375 -13.859375 C 12.40625 -12.929688 13.019531 -11.625 13.1875 -9.9375 L 10.078125 -9.9375 C 10.003906 -10.914062 9.734375 -11.625 9.265625 -12.0625 C 8.796875 -12.5 8.085938 -12.71875 7.140625 -12.71875 C 6.109375 -12.71875 5.332031 -12.347656 4.8125 -11.609375 C 4.300781 -10.867188 4.039062 -9.71875 4.03125 -8.15625 L 4.03125 -7.015625 C 4.03125 -5.390625 4.273438 -4.203125 4.765625 -3.453125 C 5.265625 -2.703125 6.046875 -2.328125 7.109375 -2.328125 C 8.054688 -2.328125 8.765625 -2.546875 9.234375 -2.984375 C 9.710938 -3.421875 9.988281 -4.097656 10.0625 -5.015625 Z M 13.15625 -5.015625 "/></g></g></g><g fill="#544f4d" fill-opacity="1"><g transform="translate(356.271315, 232.284089)"><g><path d="M 6.53125 -8.265625 L 9.671875 -15.046875 L 13.0625 -15.046875 L 8.109375 -5.453125 L 8.109375 0 L 4.96875 0 L 4.96875 -5.453125 L 0.015625 -15.046875 L 3.421875 -15.046875 Z M 6.53125 -8.265625 "/></g></g></g></svg>